<svg xmlns="http://www.w3.org/2000/svg" viewBox="0 0 101.88 152.79">
	<g id="Слой_2" data-name="Слой 2">
		<g id="Capa_1" data-name="Capa 1">
			<path d="M101.83,75.89V69.57A12.92,12.92,0,0,0,89.13,56.49a12.39,12.39,0,0,0-6.62,2V32.31A12.82,12.82,0,0,0,70,19.24a12,12,0,0,0-6.32,1.84v-8a12.66,12.66,0,0,0-25.26-1.54,12.41,12.41,0,0,0-6.53-1.93,12.91,12.91,0,0,0-12.71,13.1v7.45a12.26,12.26,0,0,0-6.43-1.86A12.91,12.91,0,0,0,0,41.4v66.2c0,26.61,20.94,45.19,50.94,45.19s50.94-18.58,50.94-45.19V76.18ZM50.95,146.55c-26.33,0-44.71-16-44.71-39V41.4a6.68,6.68,0,0,1,6.47-6.85,6.64,6.64,0,0,1,6.43,6.65V72.4l0,.18V80a3.12,3.12,0,0,0,6.24,0V41.38l0-.38V22.7a6.69,6.69,0,0,1,6.47-6.86,6.61,6.61,0,0,1,6.38,6.4V73.68l.09.42v5a3.12,3.12,0,0,0,6.24,0V22.7l-.09-.89V13.06a6.48,6.48,0,1,1,12.94,0V79.64a3.12,3.12,0,0,0,6.24,0V32.31a6.34,6.34,0,1,1,12.64,0V90.78a3.12,3.12,0,1,0,6.24,0v-2.2l.13-.69V69.59a6.48,6.48,0,1,1,12.94,0V87l.06.29v20.36C95.65,130.53,77.28,146.55,50.95,146.55Z"/>
		</g>
	</g>
</svg>