<svg xmlns="http://www.w3.org/2000/svg" viewBox="0 0 64 64">
	<defs>
		<style>.cls-1{fill:#333;}</style>
	</defs>
	<g id="Слой_2" data-name="Слой 2">
		<g id="Слой_1-2" data-name="Слой 1">
			<path class="cls-1" d="M32,0A32,32,0,1,0,64,32,32,32,0,0,0,32,0Zm0,60A28,28,0,1,1,60,32,28,28,0,0,1,32,60Z"/>
			<circle class="cls-1" cx="20.52" cy="21.36" r="4.34"/>
			<circle class="cls-1" cx="43.48" cy="21.36" r="4.34"/>
			<path class="cls-1"
			      d="M52.54,36.57a2,2,0,0,0-2.49,1.34C50,38,46.31,49.86,32,49.86s-17.9-11.47-18.06-12a2,2,0,0,0-3.83,1.15c0,.15,4.63,14.8,21.89,14.8s21.84-14.65,21.89-14.8A2,2,0,0,0,52.54,36.57Z"/>
		</g>
	</g>
</svg>